<svg xmlns="http://www.w3.org/2000/svg" xmlns:xlink="http://www.w3.org/1999/xlink" width="400" zoomAndPan="magnify" viewBox="0 0 300 187.499995" height="250" preserveAspectRatio="xMidYMid meet" version="1.0"><defs><clipPath id="28df9fbdc4"><path d="M 0.398438 0 L 299.601562 0 L 299.601562 187 L 0.398438 187 Z M 0.398438 0 " clip-rule="nonzero"/></clipPath></defs><g clip-path="url(#28df9fbdc4)"><path fill="#ffffff" d="M 0.398438 0 L 299.601562 0 L 299.601562 187 L 0.398438 187 Z M 0.398438 0 " fill-opacity="1" fill-rule="nonzero"/><path fill="#ffffff" d="M 0.398438 0 L 299.601562 0 L 299.601562 187 L 0.398438 187 Z M 0.398438 0 " fill-opacity="1" fill-rule="nonzero"/></g><path fill="#000000" d="M 176.296875 100.875 L 176.296875 98.5625 L 168.03125 98.5625 L 168.03125 110.453125 L 176.296875 110.453125 L 176.296875 108.042969 L 171.378906 108.042969 L 171.378906 105.40625 L 175.46875 105.40625 L 175.46875 103.097656 L 171.378906 103.097656 L 171.378906 100.875 L 176.296875 100.875 " fill-opacity="1" fill-rule="nonzero"/><path fill="#000000" d="M 190.875 108.105469 L 185.710938 108.105469 L 185.710938 98.5625 L 182.324219 98.5625 L 182.324219 110.453125 L 190.875 110.453125 L 190.875 108.105469 " fill-opacity="1" fill-rule="nonzero"/><path fill="#000000" d="M 218.164062 103.089844 C 215.875 102.578125 215.078125 102.519531 215.078125 101.613281 C 215.078125 100.769531 216.210938 100.507812 216.863281 100.507812 C 217.921875 100.507812 219.160156 100.753906 220.425781 101.402344 L 221.347656 99.214844 C 220.050781 98.503906 218.382812 98.214844 216.773438 98.214844 C 213.621094 98.214844 211.503906 99.488281 211.417969 101.976562 C 211.328125 104.242188 213.175781 105.09375 214.878906 105.445312 C 216.515625 105.78125 218.175781 106.074219 218.210938 107.042969 C 218.246094 107.9375 217.4375 108.320312 215.914062 108.320312 C 214.503906 108.320312 213.1875 107.871094 211.847656 107.308594 L 211.066406 109.683594 C 212.605469 110.339844 214.167969 110.699219 215.785156 110.699219 C 218.027344 110.699219 219.660156 110.355469 220.863281 109.226562 C 221.699219 108.453125 221.972656 107.519531 221.972656 106.628906 C 221.972656 104.746094 220.800781 103.6875 218.164062 103.089844 " fill-opacity="1" fill-rule="nonzero"/><path fill="#000000" d="M 163.226562 100.90625 L 163.226562 98.5625 L 152.828125 98.5625 L 152.828125 100.90625 L 156.339844 100.90625 L 156.339844 110.453125 L 159.707031 110.453125 L 159.707031 100.90625 L 163.226562 100.90625 " fill-opacity="1" fill-rule="nonzero"/><path fill="#000000" d="M 202.433594 98.5625 L 202.433594 106.117188 C 202.433594 106.710938 202.433594 106.875 202.398438 107.105469 C 202.292969 107.824219 201.589844 108.242188 200.472656 108.257812 C 199.644531 108.242188 199.039062 108 198.757812 107.570312 C 198.613281 107.347656 198.546875 106.949219 198.546875 106.3125 L 198.546875 98.5625 L 195.03125 98.5625 L 195.03125 106.757812 C 195.03125 107.898438 195.183594 108.40625 195.699219 109.054688 C 196.546875 110.113281 198.199219 110.667969 200.480469 110.667969 C 200.503906 110.667969 200.53125 110.667969 200.554688 110.667969 C 200.566406 110.667969 200.585938 110.667969 200.605469 110.667969 C 203.652344 110.667969 205.226562 109.480469 205.683594 108.371094 C 205.910156 107.832031 205.929688 107.578125 205.929688 106.492188 L 205.929688 98.558594 L 202.433594 98.558594 " fill-opacity="1" fill-rule="nonzero"/><path fill="#000000" d="M 154.414062 95.304688 L 134.710938 99.21875 L 134.710938 100.589844 L 134.777344 100.570312 C 147.792969 97.417969 154.414062 95.519531 154.46875 95.503906 C 154.542969 95.488281 154.570312 95.429688 154.558594 95.382812 C 154.546875 95.332031 154.492188 95.292969 154.414062 95.304688 " fill-opacity="1" fill-rule="nonzero"/><path fill="#000000" d="M 137.878906 96.398438 C 138.183594 96.203125 138.269531 96.324219 138.179688 96.542969 C 138.035156 96.894531 137.367188 99.023438 132.40625 103.082031 C 131.113281 104.136719 130.195312 104.734375 128.328125 105.835938 C 131.382812 101.570312 135.839844 97.722656 137.878906 96.398438 M 138.394531 94.933594 C 137.4375 94.988281 135.660156 96.402344 134.6875 97.242188 C 130.8125 100.589844 127.929688 103.664062 125.832031 106.882812 C 121.460938 109.214844 115.894531 111.613281 110.359375 113.488281 L 110.226562 113.535156 L 109.164062 116.394531 L 109.769531 116.15625 C 113.289062 114.820312 119.160156 112.304688 124.488281 109.515625 C 124.183594 110.3125 124.035156 111.046875 124.035156 111.714844 C 124.035156 112.214844 124.117188 112.675781 124.285156 113.097656 C 124.617188 113.9375 125.28125 114.574219 126.191406 114.9375 C 127.558594 115.476562 129.414062 115.492188 131.535156 114.851562 C 136.953125 113.210938 143.382812 108.183594 144.78125 107.183594 L 144.832031 107.144531 C 144.886719 107.105469 144.890625 107.046875 144.867188 107.003906 C 144.835938 106.960938 144.773438 106.945312 144.722656 106.976562 L 144.65625 107.019531 C 143.152344 107.914062 135.855469 112.234375 131.113281 113.503906 C 128.699219 114.148438 126.855469 113.792969 126.160156 112.824219 C 125.917969 112.492188 125.804688 112.074219 125.804688 111.585938 C 125.804688 110.636719 126.253906 109.421875 127.125 108.074219 C 127.921875 107.621094 128.667969 107.179688 129.335938 106.757812 C 133.964844 104.164062 139.296875 99.125 139.519531 96.046875 C 139.519531 96.023438 139.519531 96 139.519531 95.980469 C 139.519531 95.714844 139.40625 95.441406 139.203125 95.238281 C 138.988281 95.023438 138.699219 94.914062 138.394531 94.933594 Z M 138.394531 94.933594 " fill-opacity="1" fill-rule="nonzero"/><path fill="#000000" d="M 134.648438 99.234375 L 113.914062 103.675781 L 113.117188 105.828125 L 134.710938 100.589844 L 134.742188 100.578125 L 134.742188 99.210938 L 134.648438 99.234375 " fill-opacity="1" fill-rule="nonzero"/><path fill="#000000" d="M 222.65625 98.558594 L 223.035156 98.558594 L 223.691406 100.304688 L 224.355469 98.558594 L 224.734375 98.558594 L 224.734375 100.640625 L 224.46875 100.640625 L 224.46875 98.910156 L 224.464844 98.910156 L 223.8125 100.640625 L 223.574219 100.640625 L 222.921875 98.910156 L 222.917969 98.910156 L 222.917969 100.640625 L 222.652344 100.640625 L 222.652344 98.558594 Z M 222.65625 98.558594 " fill-opacity="1" fill-rule="nonzero"/><path fill="#000000" d="M 225.078125 98.558594 L 225.796875 98.558594 C 226.4375 98.558594 226.800781 98.878906 226.800781 99.550781 C 226.800781 100.246094 226.492188 100.640625 225.796875 100.640625 L 225.078125 100.640625 Z M 225.351562 100.402344 L 225.8125 100.402344 C 226.007812 100.402344 226.515625 100.351562 226.515625 99.582031 C 226.515625 99.085938 226.335938 98.785156 225.824219 98.785156 L 225.359375 98.785156 L 225.359375 100.402344 Z M 225.351562 100.402344 " fill-opacity="1" fill-rule="nonzero"/><path fill="#000000" d="M 86.527344 106.144531 C 86.527344 108.898438 84.9375 110.65625 82.507812 110.65625 C 81.253906 110.65625 80.261719 110.136719 79.609375 109.214844 L 79.609375 113.726562 L 78.269531 113.726562 L 78.269531 101.835938 L 79.542969 101.835938 L 79.542969 103.171875 C 80.195312 102.1875 81.21875 101.636719 82.507812 101.636719 C 84.941406 101.636719 86.527344 103.386719 86.527344 106.144531 Z M 85.121094 106.078125 C 85.121094 103.988281 84.019531 102.835938 82.34375 102.835938 C 80.667969 102.835938 79.566406 104.054688 79.566406 106.144531 C 79.566406 108.234375 80.667969 109.453125 82.34375 109.453125 C 84.019531 109.453125 85.121094 108.164062 85.121094 106.078125 Z M 85.121094 106.078125 " fill-opacity="1" fill-rule="nonzero"/><path fill="#000000" d="M 95.503906 109.367188 L 95.503906 110.449219 C 95.285156 110.480469 95.019531 110.5 94.769531 110.5 C 93.816406 110.5 93.375 110.082031 93.3125 109.261719 C 92.710938 110.179688 91.738281 110.648438 90.496094 110.648438 C 88.621094 110.648438 87.449219 109.75 87.449219 108.128906 C 87.449219 106.777344 88.269531 105.707031 90.648438 105.457031 L 91.890625 105.324219 C 92.761719 105.226562 93.246094 104.90625 93.246094 104.136719 C 93.246094 103.238281 92.773438 102.785156 91.300781 102.785156 C 89.828125 102.785156 89.207031 103.207031 89.125 104.488281 L 87.78125 104.488281 C 87.882812 102.820312 88.773438 101.632812 91.300781 101.632812 C 93.695312 101.632812 94.550781 102.683594 94.550781 104.132812 L 94.550781 108.945312 C 94.550781 109.210938 94.699219 109.363281 95.019531 109.363281 L 95.503906 109.363281 Z M 93.246094 107.046875 L 93.246094 106.027344 C 92.976562 106.226562 92.609375 106.34375 92.105469 106.394531 L 90.847656 106.546875 C 89.273438 106.726562 88.839844 107.265625 88.839844 108.097656 C 88.839844 108.949219 89.375 109.515625 90.566406 109.515625 C 91.851562 109.515625 93.246094 108.746094 93.246094 107.046875 Z M 93.246094 107.046875 " fill-opacity="1" fill-rule="nonzero"/><path fill="#000000" d="M 101.183594 101.71875 L 101.183594 103.003906 L 100.847656 103.003906 C 99.121094 103.003906 98.015625 103.875 98.015625 105.542969 L 98.015625 110.453125 L 96.675781 110.453125 L 96.675781 101.835938 L 97.949219 101.835938 L 97.949219 103.355469 C 98.433594 102.453125 99.324219 101.703125 100.726562 101.703125 C 100.863281 101.703125 100.996094 101.703125 101.183594 101.71875 Z M 101.183594 101.71875 " fill-opacity="1" fill-rule="nonzero"/><path fill="#000000" d="M 162.539062 130.855469 L 161.367188 127.765625 L 156.011719 127.765625 L 154.855469 130.855469 L 153 130.855469 L 157.652344 118.964844 L 159.710938 118.964844 L 164.433594 130.855469 Z M 156.578125 126.214844 L 160.78125 126.214844 L 160.527344 125.5625 C 160.046875 124.34375 159.273438 122.339844 158.671875 120.683594 C 158.070312 122.335938 157.296875 124.34375 156.828125 125.5625 Z M 156.578125 126.214844 " fill-opacity="1" fill-rule="nonzero"/><path fill="#000000" d="M 167.3125 121.453125 L 167.3125 122.234375 L 169.121094 122.234375 L 169.121094 123.605469 L 167.3125 123.605469 L 167.3125 130.855469 L 165.640625 130.855469 L 165.640625 123.605469 L 164.246094 123.605469 L 164.246094 122.234375 L 165.640625 122.234375 L 165.640625 121.453125 C 165.640625 119.933594 166.359375 118.914062 168.234375 118.914062 C 168.519531 118.914062 168.957031 118.945312 169.1875 118.964844 L 169.1875 120.316406 L 168.4375 120.316406 C 167.679688 120.320312 167.3125 120.722656 167.3125 121.453125 Z M 167.3125 121.453125 " fill-opacity="1" fill-rule="nonzero"/><path fill="#000000" d="M 172.890625 121.453125 L 172.890625 122.234375 L 174.695312 122.234375 L 174.695312 123.605469 L 172.890625 123.605469 L 172.890625 130.855469 L 171.214844 130.855469 L 171.214844 123.605469 L 169.824219 123.605469 L 169.824219 122.234375 L 171.214844 122.234375 L 171.214844 121.453125 C 171.214844 119.933594 171.9375 118.914062 173.8125 118.914062 C 174.09375 118.914062 174.53125 118.945312 174.765625 118.964844 L 174.765625 120.316406 L 174.011719 120.316406 C 173.253906 120.320312 172.890625 120.722656 172.890625 121.453125 Z M 172.890625 121.453125 " fill-opacity="1" fill-rule="nonzero"/><path fill="#000000" d="M 183.371094 129.570312 L 183.371094 130.859375 C 183.121094 130.890625 182.816406 130.910156 182.550781 130.910156 C 181.476562 130.910156 180.992188 130.527344 180.875 129.691406 C 180.289062 130.589844 179.320312 131.058594 178.058594 131.058594 C 176.203125 131.058594 174.980469 130.160156 174.980469 128.503906 C 174.980469 127.113281 175.8125 126.0625 178.226562 125.832031 L 179.5 125.699219 C 180.335938 125.597656 180.792969 125.316406 180.792969 124.617188 C 180.792969 123.816406 180.371094 123.378906 179.015625 123.378906 C 177.664062 123.378906 177.09375 123.761719 177.007812 124.929688 L 175.351562 124.929688 C 175.453125 123.191406 176.425781 122.039062 179.023438 122.039062 C 181.5 122.039062 182.441406 123.078125 182.441406 124.578125 L 182.441406 129.140625 C 182.441406 129.40625 182.570312 129.570312 182.910156 129.570312 Z M 180.792969 127.449219 L 180.792969 126.550781 C 180.542969 126.75 180.191406 126.851562 179.71875 126.902344 L 178.515625 127.03125 C 177.125 127.199219 176.707031 127.683594 176.707031 128.453125 C 176.707031 129.234375 177.230469 129.753906 178.316406 129.753906 C 179.539062 129.753906 180.792969 129.070312 180.792969 127.449219 Z M 180.792969 127.449219 " fill-opacity="1" fill-rule="nonzero"/><path fill="#000000" d="M 184.222656 120.121094 C 184.222656 119.570312 184.675781 119.101562 185.246094 119.101562 C 185.796875 119.101562 186.269531 119.570312 186.269531 120.121094 C 186.269531 120.6875 185.816406 121.140625 185.246094 121.140625 C 184.695312 121.140625 184.222656 120.683594 184.222656 120.121094 Z M 184.410156 130.855469 L 184.410156 122.234375 L 186.085938 122.234375 L 186.085938 130.855469 Z M 184.410156 130.855469 " fill-opacity="1" fill-rule="nonzero"/><path fill="#000000" d="M 192.746094 122.121094 L 192.746094 123.710938 L 192.328125 123.710938 C 190.671875 123.710938 189.628906 124.53125 189.628906 126.179688 L 189.628906 130.859375 L 187.957031 130.859375 L 187.957031 122.242188 L 189.5625 122.242188 L 189.5625 123.777344 C 190.03125 122.839844 190.886719 122.109375 192.257812 122.109375 C 192.414062 122.105469 192.566406 122.105469 192.746094 122.121094 Z M 192.746094 122.121094 " fill-opacity="1" fill-rule="nonzero"/><path fill="#000000" d="M 193.097656 126.550781 C 193.097656 123.84375 194.742188 122.039062 197.199219 122.039062 C 199.808594 122.039062 201.300781 124.027344 201.300781 126.613281 L 201.300781 127.097656 L 194.785156 127.097656 C 194.9375 128.847656 195.890625 129.648438 197.265625 129.648438 C 198.386719 129.648438 199.109375 129.082031 199.410156 128.210938 L 201.082031 128.210938 C 200.664062 129.882812 199.308594 131.050781 197.230469 131.050781 C 194.792969 131.054688 193.097656 129.320312 193.097656 126.550781 Z M 199.578125 125.78125 C 199.425781 124.441406 198.605469 123.441406 197.199219 123.441406 C 195.945312 123.441406 195.023438 124.210938 194.824219 125.78125 Z M 199.578125 125.78125 " fill-opacity="1" fill-rule="nonzero"/><path fill="#000000" d="M 202.160156 128.121094 L 203.835938 128.121094 C 203.96875 129.320312 204.554688 129.757812 205.960938 129.757812 C 207.316406 129.757812 207.867188 129.324219 207.867188 128.558594 C 207.867188 127.875 207.449219 127.539062 206.023438 127.289062 L 205.136719 127.117188 C 203.277344 126.785156 202.386719 125.949219 202.386719 124.546875 C 202.386719 123.027344 203.59375 122.046875 205.71875 122.046875 C 208.179688 122.046875 209.320312 123.113281 209.371094 124.933594 L 207.746094 124.933594 C 207.675781 123.695312 206.941406 123.347656 205.71875 123.347656 C 204.632812 123.347656 204.042969 123.777344 204.042969 124.496094 C 204.042969 125.230469 204.632812 125.515625 205.652344 125.71875 L 206.554688 125.867188 C 208.664062 126.269531 209.550781 127.003906 209.550781 128.4375 C 209.550781 130.125 208.195312 131.078125 205.933594 131.078125 C 203.632812 131.074219 202.273438 130.171875 202.160156 128.121094 Z M 202.160156 128.121094 " fill-opacity="1" fill-rule="nonzero"/><path fill="#000000" d="M 78.261719 56.078125 L 91.984375 56.078125 C 95.289062 56.078125 97.816406 56.894531 99.40625 58.300781 C 101.078125 59.796875 101.851562 61.640625 101.851562 64.035156 C 101.851562 67.15625 99.921875 69.167969 97.046875 70.148438 L 97.046875 70.277344 C 100.4375 71.261719 102.753906 74.085938 102.753906 77.847656 C 102.753906 80.714844 101.855469 82.683594 100.050781 84.21875 C 98.292969 85.757812 95.589844 86.660156 92.332031 86.660156 L 78.261719 86.660156 Z M 91.214844 68.398438 C 93.914062 68.398438 95.757812 67.113281 95.757812 64.714844 C 95.757812 62.449219 94.085938 61.121094 91.34375 61.121094 L 84.480469 61.121094 L 84.480469 68.398438 Z M 84.480469 81.535156 L 91.644531 81.535156 C 94.644531 81.535156 96.449219 79.863281 96.449219 77.386719 C 96.449219 74.472656 94.304688 72.980469 91.472656 72.980469 L 84.480469 72.980469 Z M 84.480469 81.535156 " fill-opacity="1" fill-rule="nonzero"/><path fill="#000000" d="M 118.199219 84.230469 L 118.113281 84.230469 C 116.996094 85.898438 115.410156 87.183594 111.632812 87.183594 C 107.128906 87.183594 103.953125 84.828125 103.953125 80.464844 C 103.953125 75.628906 107.902344 74.089844 112.792969 73.402344 C 116.4375 72.890625 118.113281 72.59375 118.113281 70.921875 C 118.113281 69.339844 116.867188 68.3125 114.421875 68.3125 C 111.675781 68.3125 110.347656 69.292969 110.171875 71.386719 L 104.988281 71.386719 C 105.164062 67.539062 108.03125 64.160156 114.472656 64.160156 C 121.078125 64.160156 123.738281 67.113281 123.738281 72.246094 L 123.738281 83.414062 C 123.738281 85.085938 123.992188 86.066406 124.507812 86.453125 L 124.507812 86.667969 L 118.886719 86.667969 C 118.546875 86.242188 118.332031 85.210938 118.199219 84.230469 Z M 118.246094 78.921875 L 118.246094 75.628906 C 117.214844 76.230469 115.625 76.570312 114.167969 76.910156 C 111.125 77.597656 109.625 78.28125 109.625 80.332031 C 109.625 82.386719 111 83.113281 113.054688 83.113281 C 116.402344 83.113281 118.246094 81.0625 118.246094 78.921875 Z M 118.246094 78.921875 " fill-opacity="1" fill-rule="nonzero"/><path fill="#000000" d="M 126.351562 75.714844 C 126.351562 68.867188 130.253906 64.121094 135.746094 64.121094 C 138.835938 64.121094 140.765625 65.53125 141.96875 67.375 L 142.09375 67.375 L 142.09375 56.078125 L 147.929688 56.078125 L 147.929688 86.667969 L 142.308594 86.667969 L 142.308594 83.800781 L 142.222656 83.800781 C 140.9375 85.894531 138.75 87.308594 135.660156 87.308594 C 130.125 87.308594 126.351562 82.8125 126.351562 75.714844 Z M 142.222656 75.84375 C 142.222656 71.652344 140.847656 68.824219 137.117188 68.824219 C 133.898438 68.824219 132.269531 71.652344 132.269531 75.714844 C 132.269531 79.945312 133.945312 82.433594 136.949219 82.433594 C 140.421875 82.433594 142.222656 79.863281 142.222656 75.84375 Z M 142.222656 75.84375 " fill-opacity="1" fill-rule="nonzero"/><path fill="#000000" d="M 164.871094 84.230469 L 164.785156 84.230469 C 163.671875 85.898438 162.085938 87.183594 158.3125 87.183594 C 153.808594 87.183594 150.632812 84.828125 150.632812 80.464844 C 150.632812 75.628906 154.578125 74.089844 159.46875 73.402344 C 163.117188 72.890625 164.785156 72.59375 164.785156 70.921875 C 164.785156 69.339844 163.542969 68.3125 161.09375 68.3125 C 158.347656 68.3125 157.019531 69.292969 156.851562 71.386719 L 151.660156 71.386719 C 151.832031 67.539062 154.707031 64.160156 161.140625 64.160156 C 167.746094 64.160156 170.402344 67.113281 170.402344 72.246094 L 170.402344 83.414062 C 170.402344 85.085938 170.660156 86.066406 171.179688 86.453125 L 171.179688 86.667969 L 165.558594 86.667969 C 165.21875 86.242188 165 85.210938 164.871094 84.230469 Z M 164.917969 78.921875 L 164.917969 75.628906 C 163.890625 76.230469 162.300781 76.570312 160.84375 76.910156 C 157.800781 77.597656 156.300781 78.28125 156.300781 80.332031 C 156.300781 82.386719 157.671875 83.113281 159.730469 83.113281 C 163.074219 83.113281 164.917969 81.0625 164.917969 78.921875 Z M 164.917969 78.921875 " fill-opacity="1" fill-rule="nonzero"/><path fill="#000000" d="M 174.179688 56.078125 L 180.015625 56.078125 L 180.015625 86.667969 L 174.179688 86.667969 Z M 174.179688 56.078125 " fill-opacity="1" fill-rule="nonzero"/></svg>