<svg xmlns="http://www.w3.org/2000/svg" xmlns:xlink="http://www.w3.org/1999/xlink" width="400" zoomAndPan="magnify" viewBox="0 0 300 187.499995" height="250" preserveAspectRatio="xMidYMid meet" version="1.0"><defs><clipPath id="7be857e8fe"><path d="M 0.398438 0 L 299.601562 0 L 299.601562 187 L 0.398438 187 Z M 0.398438 0 " clip-rule="nonzero"/></clipPath></defs><g clip-path="url(#7be857e8fe)"><path fill="#ffffff" d="M 0.398438 0 L 299.601562 0 L 299.601562 187 L 0.398438 187 Z M 0.398438 0 " fill-opacity="1" fill-rule="nonzero"/><path fill="#ffffff" d="M 0.398438 0 L 299.601562 0 L 299.601562 187 L 0.398438 187 Z M 0.398438 0 " fill-opacity="1" fill-rule="nonzero"/></g><path fill="#000000" d="M 174.214844 101.46875 L 174.214844 99.035156 L 165.574219 99.035156 L 165.574219 111.546875 L 174.214844 111.546875 L 174.214844 109.011719 L 169.070312 109.011719 L 169.070312 106.238281 L 173.351562 106.238281 L 173.351562 103.804688 L 169.070312 103.804688 L 169.070312 101.46875 L 174.214844 101.46875 " fill-opacity="1" fill-rule="nonzero"/><path fill="#000000" d="M 189.453125 109.078125 L 184.054688 109.078125 L 184.054688 99.035156 L 180.515625 99.035156 L 180.515625 111.546875 L 189.453125 111.546875 L 189.453125 109.078125 " fill-opacity="1" fill-rule="nonzero"/><path fill="#000000" d="M 217.980469 103.800781 C 215.589844 103.257812 214.757812 103.195312 214.757812 102.242188 C 214.757812 101.359375 215.9375 101.082031 216.621094 101.082031 C 217.726562 101.082031 219.023438 101.339844 220.347656 102.023438 L 221.308594 99.71875 C 219.957031 98.972656 218.210938 98.667969 216.53125 98.667969 C 213.234375 98.667969 211.019531 100.007812 210.929688 102.628906 C 210.835938 105.011719 212.765625 105.90625 214.546875 106.277344 C 216.257812 106.628906 217.996094 106.9375 218.03125 107.957031 C 218.066406 108.898438 217.222656 109.300781 215.628906 109.300781 C 214.15625 109.300781 212.78125 108.828125 211.378906 108.238281 L 210.5625 110.738281 C 212.171875 111.429688 213.808594 111.804688 215.496094 111.804688 C 217.835938 111.804688 219.546875 111.441406 220.804688 110.253906 C 221.675781 109.441406 221.964844 108.460938 221.964844 107.519531 C 221.964844 105.542969 220.738281 104.425781 217.980469 103.800781 " fill-opacity="1" fill-rule="nonzero"/><path fill="#000000" d="M 160.546875 101.5 L 160.546875 99.035156 L 149.675781 99.035156 L 149.675781 101.5 L 153.347656 101.5 L 153.347656 111.546875 L 156.867188 111.546875 L 156.867188 101.5 L 160.546875 101.5 " fill-opacity="1" fill-rule="nonzero"/><path fill="#000000" d="M 201.539062 99.035156 L 201.539062 106.984375 C 201.539062 107.605469 201.539062 107.78125 201.5 108.023438 C 201.390625 108.78125 200.65625 109.222656 199.484375 109.234375 C 198.621094 109.222656 197.988281 108.96875 197.691406 108.511719 C 197.542969 108.277344 197.472656 107.859375 197.472656 107.191406 L 197.472656 99.035156 L 193.800781 99.035156 L 193.800781 107.660156 C 193.800781 108.855469 193.957031 109.394531 194.496094 110.074219 C 195.382812 111.1875 197.109375 111.773438 199.496094 111.773438 C 199.519531 111.773438 199.546875 111.773438 199.570312 111.773438 C 199.585938 111.773438 199.605469 111.773438 199.625 111.773438 C 202.8125 111.773438 204.457031 110.523438 204.933594 109.355469 C 205.171875 108.789062 205.191406 108.523438 205.191406 107.378906 L 205.191406 99.03125 L 201.539062 99.03125 " fill-opacity="1" fill-rule="nonzero"/><path fill="#000000" d="M 151.335938 95.605469 L 130.738281 99.726562 L 130.738281 101.167969 L 130.804688 101.148438 C 144.414062 97.828125 151.335938 95.832031 151.390625 95.816406 C 151.46875 95.796875 151.496094 95.738281 151.488281 95.6875 C 151.472656 95.636719 151.421875 95.59375 151.335938 95.605469 " fill-opacity="1" fill-rule="nonzero"/><path fill="#000000" d="M 134.046875 96.757812 C 134.367188 96.550781 134.457031 96.679688 134.363281 96.910156 C 134.210938 97.277344 133.511719 99.519531 128.328125 103.789062 C 126.972656 104.902344 126.015625 105.527344 124.0625 106.6875 C 127.253906 102.199219 131.914062 98.148438 134.046875 96.757812 M 134.585938 95.214844 C 133.585938 95.273438 131.730469 96.761719 130.714844 97.648438 C 126.660156 101.167969 123.648438 104.402344 121.453125 107.789062 C 116.882812 110.246094 111.0625 112.769531 105.277344 114.742188 L 105.140625 114.789062 L 104.027344 117.796875 L 104.664062 117.546875 C 108.339844 116.140625 114.480469 113.496094 120.046875 110.5625 C 119.730469 111.398438 119.574219 112.171875 119.574219 112.875 C 119.574219 113.402344 119.660156 113.882812 119.835938 114.328125 C 120.183594 115.210938 120.875 115.882812 121.832031 116.265625 C 123.257812 116.835938 125.199219 116.847656 127.417969 116.171875 C 133.078125 114.449219 139.800781 109.160156 141.265625 108.105469 L 141.316406 108.066406 C 141.375 108.023438 141.378906 107.960938 141.355469 107.917969 C 141.324219 107.871094 141.253906 107.855469 141.203125 107.890625 L 141.132812 107.933594 C 139.5625 108.875 131.933594 113.421875 126.972656 114.757812 C 124.449219 115.4375 122.523438 115.0625 121.796875 114.042969 C 121.542969 113.691406 121.425781 113.253906 121.425781 112.738281 C 121.425781 111.738281 121.894531 110.460938 122.804688 109.042969 C 123.640625 108.566406 124.417969 108.101562 125.117188 107.660156 C 129.953125 104.929688 135.53125 99.625 135.765625 96.386719 C 135.765625 96.363281 135.765625 96.339844 135.765625 96.316406 C 135.765625 96.039062 135.644531 95.75 135.429688 95.535156 C 135.207031 95.308594 134.910156 95.195312 134.585938 95.214844 Z M 134.585938 95.214844 " fill-opacity="1" fill-rule="nonzero"/><path fill="#000000" d="M 130.671875 99.738281 L 108.992188 104.414062 L 108.160156 106.679688 L 130.738281 101.167969 L 130.769531 101.15625 L 130.769531 99.714844 L 130.671875 99.738281 " fill-opacity="1" fill-rule="nonzero"/><path fill="#000000" d="M 223.988281 99.035156 C 224.691406 99.035156 225.285156 99.597656 225.285156 100.328125 C 225.285156 101.074219 224.691406 101.636719 223.988281 101.636719 C 223.277344 101.636719 222.679688 101.074219 222.679688 100.328125 C 222.683594 99.597656 223.277344 99.035156 223.988281 99.035156 Z M 223.988281 101.445312 C 224.585938 101.445312 225.050781 100.964844 225.050781 100.328125 C 225.050781 99.707031 224.585938 99.226562 223.988281 99.226562 C 223.378906 99.226562 222.917969 99.707031 222.917969 100.328125 C 222.917969 100.964844 223.378906 101.445312 223.988281 101.445312 Z M 223.480469 99.570312 L 224.066406 99.570312 C 224.425781 99.570312 224.597656 99.714844 224.597656 100.007812 C 224.597656 100.28125 224.425781 100.394531 224.195312 100.417969 L 224.628906 101.089844 L 224.378906 101.089844 L 223.96875 100.4375 L 223.71875 100.4375 L 223.71875 101.089844 L 223.484375 101.089844 L 223.484375 99.570312 Z M 223.71875 100.246094 L 223.96875 100.246094 C 224.171875 100.246094 224.367188 100.238281 224.367188 100 C 224.367188 99.796875 224.195312 99.761719 224.035156 99.761719 L 223.722656 99.761719 L 223.722656 100.246094 Z M 223.71875 100.246094 " fill-opacity="1" fill-rule="nonzero"/><path fill="#000000" d="M 86.296875 107.023438 C 86.296875 109.917969 84.632812 111.769531 82.09375 111.769531 C 80.746094 111.769531 79.679688 111.1875 78.992188 110.148438 L 78.992188 111.558594 L 77.664062 111.558594 L 77.664062 99.046875 L 79.066406 99.046875 L 79.066406 103.789062 C 79.746094 102.824219 80.78125 102.277344 82.09375 102.277344 C 84.632812 102.277344 86.296875 104.121094 86.296875 107.023438 Z M 84.824219 106.949219 C 84.824219 104.753906 83.667969 103.542969 81.917969 103.542969 C 80.167969 103.542969 79.011719 104.824219 79.011719 107.023438 C 79.011719 109.222656 80.167969 110.503906 81.917969 110.503906 C 83.667969 110.5 84.824219 109.148438 84.824219 106.949219 Z M 84.824219 106.949219 " fill-opacity="1" fill-rule="nonzero"/><path fill="#000000" d="M 93.15625 102.488281 L 94.679688 102.488281 L 90.863281 112.980469 C 90.285156 114.578125 89.355469 115.054688 87.917969 115.054688 C 87.636719 115.054688 87.339844 115.035156 87.078125 115.019531 L 87.078125 113.824219 L 87.90625 113.824219 C 88.796875 113.824219 89.269531 113.421875 89.550781 112.695312 C 89.65625 112.433594 89.761719 112.136719 89.867188 111.855469 L 86.46875 102.488281 L 88.007812 102.488281 L 89.289062 106.265625 C 89.742188 107.582031 90.160156 108.886719 90.585938 110.183594 C 90.984375 108.878906 91.425781 107.5625 91.882812 106.246094 Z M 93.15625 102.488281 " fill-opacity="1" fill-rule="nonzero"/><path fill="#000000" d="M 163.128906 129.464844 C 163.128906 131.59375 161.742188 133.015625 158.960938 133.015625 L 153.34375 133.015625 L 153.34375 120.503906 L 158.71875 120.503906 C 161.453125 120.503906 162.621094 122.015625 162.621094 123.753906 C 162.621094 125.003906 162.011719 125.914062 160.976562 126.476562 C 162.476562 127.042969 163.128906 128.222656 163.128906 129.464844 Z M 155.214844 122.121094 L 155.214844 125.863281 L 158.589844 125.863281 C 160.058594 125.863281 160.78125 125.128906 160.78125 123.917969 C 160.78125 122.863281 160.066406 122.125 158.589844 122.125 L 155.214844 122.125 Z M 158.851562 131.402344 C 160.425781 131.402344 161.234375 130.664062 161.234375 129.433594 C 161.234375 128.042969 160.339844 127.429688 158.851562 127.429688 L 155.214844 127.429688 L 155.214844 131.402344 Z M 158.851562 131.402344 " fill-opacity="1" fill-rule="nonzero"/><path fill="#000000" d="M 170.375 123.949219 L 172.125 123.949219 L 172.125 133.019531 L 170.445312 133.019531 L 170.445312 131.664062 C 169.867188 132.558594 168.886719 133.230469 167.605469 133.230469 C 165.664062 133.230469 164.4375 132.105469 164.4375 130.03125 L 164.4375 123.949219 L 166.191406 123.949219 L 166.191406 129.78125 C 166.191406 131.078125 166.871094 131.679688 168.097656 131.679688 C 169.183594 131.679688 170.375 130.886719 170.375 129.058594 Z M 170.375 123.949219 " fill-opacity="1" fill-rule="nonzero"/><path fill="#000000" d="M 173.488281 130.136719 L 175.238281 130.136719 C 175.378906 131.402344 175.992188 131.859375 177.460938 131.859375 C 178.878906 131.859375 179.457031 131.40625 179.457031 130.597656 C 179.457031 129.878906 179.015625 129.523438 177.527344 129.261719 L 176.597656 129.082031 C 174.65625 128.734375 173.726562 127.851562 173.726562 126.378906 C 173.726562 124.777344 174.984375 123.742188 177.210938 123.742188 C 179.78125 123.742188 180.972656 124.871094 181.023438 126.785156 L 179.328125 126.785156 C 179.253906 125.480469 178.488281 125.113281 177.210938 125.113281 C 176.074219 125.113281 175.457031 125.566406 175.457031 126.324219 C 175.457031 127.097656 176.074219 127.398438 177.136719 127.609375 L 178.082031 127.765625 C 180.285156 128.1875 181.214844 128.964844 181.214844 130.472656 C 181.214844 132.25 179.800781 133.25 177.433594 133.25 C 175.027344 133.246094 173.613281 132.296875 173.488281 130.136719 Z M 173.488281 130.136719 " fill-opacity="1" fill-rule="nonzero"/><path fill="#000000" d="M 182.332031 121.71875 C 182.332031 121.140625 182.804688 120.644531 183.402344 120.644531 C 183.976562 120.644531 184.46875 121.140625 184.46875 121.71875 C 184.46875 122.316406 183.996094 122.792969 183.402344 122.792969 C 182.820312 122.792969 182.332031 122.3125 182.332031 121.71875 Z M 182.523438 133.015625 L 182.523438 123.945312 L 184.273438 123.945312 L 184.273438 133.015625 Z M 182.523438 133.015625 " fill-opacity="1" fill-rule="nonzero"/><path fill="#000000" d="M 193.917969 126.9375 L 193.917969 133.019531 L 192.167969 133.019531 L 192.167969 127.1875 C 192.167969 125.882812 191.488281 125.289062 190.261719 125.289062 C 189.191406 125.289062 187.984375 126.082031 187.984375 127.910156 L 187.984375 133.023438 L 186.234375 133.023438 L 186.234375 123.953125 L 187.914062 123.953125 L 187.914062 125.308594 C 188.511719 124.414062 189.472656 123.742188 190.75 123.742188 C 192.710938 123.738281 193.917969 124.863281 193.917969 126.9375 Z M 193.917969 126.9375 " fill-opacity="1" fill-rule="nonzero"/><path fill="#000000" d="M 195.480469 128.484375 C 195.480469 125.636719 197.195312 123.738281 199.769531 123.738281 C 202.496094 123.738281 204.054688 125.832031 204.054688 128.550781 L 204.054688 129.058594 L 197.246094 129.058594 C 197.402344 130.902344 198.398438 131.746094 199.835938 131.746094 C 201.007812 131.746094 201.761719 131.148438 202.078125 130.230469 L 203.828125 130.230469 C 203.386719 131.988281 201.972656 133.21875 199.800781 133.21875 C 197.246094 133.226562 195.480469 131.402344 195.480469 128.484375 Z M 202.253906 127.675781 C 202.09375 126.265625 201.238281 125.214844 199.769531 125.214844 C 198.457031 125.214844 197.492188 126.023438 197.28125 127.675781 Z M 202.253906 127.675781 " fill-opacity="1" fill-rule="nonzero"/><path fill="#000000" d="M 204.949219 130.136719 L 206.699219 130.136719 C 206.835938 131.402344 207.453125 131.859375 208.921875 131.859375 C 210.339844 131.859375 210.914062 131.40625 210.914062 130.597656 C 210.914062 129.878906 210.476562 129.523438 208.988281 129.261719 L 208.058594 129.082031 C 206.117188 128.734375 205.1875 127.851562 205.1875 126.378906 C 205.1875 124.777344 206.445312 123.742188 208.667969 123.742188 C 211.242188 123.742188 212.433594 124.871094 212.484375 126.785156 L 210.785156 126.785156 C 210.714844 125.480469 209.949219 125.113281 208.667969 125.113281 C 207.535156 125.113281 206.917969 125.566406 206.917969 126.324219 C 206.917969 127.097656 207.535156 127.398438 208.597656 127.609375 L 209.542969 127.765625 C 211.746094 128.1875 212.675781 128.964844 212.675781 130.472656 C 212.675781 132.25 211.257812 133.25 208.894531 133.25 C 206.488281 133.246094 205.074219 132.296875 204.949219 130.136719 Z M 204.949219 130.136719 " fill-opacity="1" fill-rule="nonzero"/><path fill="#000000" d="M 213.578125 130.136719 L 215.328125 130.136719 C 215.464844 131.402344 216.082031 131.859375 217.550781 131.859375 C 218.96875 131.859375 219.546875 131.40625 219.546875 130.597656 C 219.546875 129.878906 219.105469 129.523438 217.617188 129.261719 L 216.6875 129.082031 C 214.746094 128.734375 213.816406 127.851562 213.816406 126.378906 C 213.816406 124.777344 215.074219 123.742188 217.296875 123.742188 C 219.871094 123.742188 221.0625 124.871094 221.113281 126.785156 L 219.417969 126.785156 C 219.34375 125.480469 218.578125 125.113281 217.296875 125.113281 C 216.164062 125.113281 215.546875 125.566406 215.546875 126.324219 C 215.546875 127.097656 216.164062 127.398438 217.226562 127.609375 L 218.171875 127.765625 C 220.375 128.1875 221.304688 128.964844 221.304688 130.472656 C 221.304688 132.25 219.890625 133.25 217.523438 133.25 C 215.117188 133.246094 213.703125 132.296875 213.578125 130.136719 Z M 213.578125 130.136719 " fill-opacity="1" fill-rule="nonzero"/><path fill="#000000" d="M 77.675781 54.332031 L 92.027344 54.332031 C 95.480469 54.332031 98.121094 55.1875 99.78125 56.667969 C 101.535156 58.242188 102.339844 60.183594 102.339844 62.703125 C 102.339844 65.984375 100.320312 68.101562 97.316406 69.136719 L 97.316406 69.269531 C 100.859375 70.304688 103.285156 73.277344 103.285156 77.238281 C 103.285156 80.253906 102.34375 82.324219 100.460938 83.941406 C 98.617188 85.5625 95.792969 86.507812 92.390625 86.507812 L 77.675781 86.507812 Z M 91.21875 67.292969 C 94.042969 67.292969 95.972656 65.941406 95.972656 63.417969 C 95.972656 61.035156 94.21875 59.636719 91.355469 59.636719 L 84.179688 59.636719 L 84.179688 67.292969 Z M 84.179688 81.117188 L 91.667969 81.117188 C 94.808594 81.117188 96.691406 79.359375 96.691406 76.75 C 96.691406 73.6875 94.449219 72.117188 91.492188 72.117188 L 84.179688 72.117188 Z M 84.179688 81.117188 " fill-opacity="1" fill-rule="nonzero"/><path fill="#000000" d="M 119.429688 83.953125 L 119.339844 83.953125 C 118.171875 85.710938 116.515625 87.058594 112.566406 87.058594 C 107.859375 87.058594 104.539062 84.585938 104.539062 79.992188 C 104.539062 74.902344 108.664062 73.285156 113.777344 72.5625 C 117.589844 72.019531 119.339844 71.707031 119.339844 69.949219 C 119.339844 68.285156 118.039062 67.203125 115.480469 67.203125 C 112.609375 67.203125 111.222656 68.238281 111.039062 70.4375 L 105.617188 70.4375 C 105.796875 66.386719 108.796875 62.835938 115.53125 62.835938 C 122.4375 62.835938 125.21875 65.941406 125.21875 71.34375 L 125.21875 83.09375 C 125.21875 84.851562 125.484375 85.886719 126.023438 86.292969 L 126.023438 86.519531 L 120.148438 86.519531 C 119.789062 86.070312 119.566406 84.988281 119.429688 83.953125 Z M 119.472656 78.367188 L 119.472656 74.902344 C 118.394531 75.535156 116.734375 75.894531 115.214844 76.253906 C 112.03125 76.976562 110.464844 77.695312 110.464844 79.851562 C 110.464844 82.011719 111.898438 82.777344 114.050781 82.777344 C 117.546875 82.777344 119.472656 80.621094 119.472656 78.367188 Z M 119.472656 78.367188 " fill-opacity="1" fill-rule="nonzero"/><path fill="#000000" d="M 127.953125 74.992188 C 127.953125 67.785156 132.03125 62.792969 137.773438 62.792969 C 141.003906 62.792969 143.019531 64.277344 144.273438 66.214844 L 144.410156 66.214844 L 144.410156 54.332031 L 150.511719 54.332031 L 150.511719 86.519531 L 144.632812 86.519531 L 144.632812 83.503906 L 144.542969 83.503906 C 143.195312 85.703125 140.910156 87.195312 137.683594 87.195312 C 131.902344 87.195312 127.953125 82.464844 127.953125 74.992188 Z M 144.546875 75.128906 C 144.546875 70.71875 143.109375 67.742188 139.210938 67.742188 C 135.847656 67.742188 134.144531 70.71875 134.144531 74.992188 C 134.144531 79.445312 135.894531 82.0625 139.03125 82.0625 C 142.664062 82.0625 144.546875 79.359375 144.546875 75.128906 Z M 144.546875 75.128906 " fill-opacity="1" fill-rule="nonzero"/><path fill="#000000" d="M 168.226562 83.953125 L 168.136719 83.953125 C 166.972656 85.710938 165.3125 87.058594 161.367188 87.058594 C 156.660156 87.058594 153.339844 84.585938 153.339844 79.992188 C 153.339844 74.902344 157.464844 73.285156 162.578125 72.5625 C 166.390625 72.019531 168.136719 71.707031 168.136719 69.949219 C 168.136719 68.285156 166.839844 67.203125 164.277344 67.203125 C 161.40625 67.203125 160.015625 68.238281 159.839844 70.4375 L 154.410156 70.4375 C 154.59375 66.386719 157.597656 62.835938 164.324219 62.835938 C 171.230469 62.835938 174.007812 65.941406 174.007812 71.34375 L 174.007812 83.09375 C 174.007812 84.851562 174.273438 85.886719 174.820312 86.292969 L 174.820312 86.519531 L 168.941406 86.519531 C 168.585938 86.070312 168.359375 84.988281 168.226562 83.953125 Z M 168.269531 78.367188 L 168.269531 74.902344 C 167.195312 75.535156 165.53125 75.894531 164.007812 76.253906 C 160.828125 76.976562 159.257812 77.695312 159.257812 79.851562 C 159.257812 82.011719 160.695312 82.777344 162.847656 82.777344 C 166.34375 82.777344 168.269531 80.621094 168.269531 78.367188 Z M 168.269531 78.367188 " fill-opacity="1" fill-rule="nonzero"/><path fill="#000000" d="M 177.957031 54.332031 L 184.058594 54.332031 L 184.058594 86.519531 L 177.957031 86.519531 Z M 177.957031 54.332031 " fill-opacity="1" fill-rule="nonzero"/></svg>