<svg xmlns="http://www.w3.org/2000/svg" xmlns:xlink="http://www.w3.org/1999/xlink" width="400" zoomAndPan="magnify" viewBox="0 0 300 187.499995" height="250" preserveAspectRatio="xMidYMid meet" version="1.0"><defs><clipPath id="737eb057f2"><path d="M 0.398438 0 L 299.601562 0 L 299.601562 187 L 0.398438 187 Z M 0.398438 0 " clip-rule="nonzero"/></clipPath><clipPath id="81a8348a27"><path d="M 90 82 L 262.375 82 L 262.375 105 L 90 105 Z M 90 82 " clip-rule="nonzero"/></clipPath><clipPath id="dbaed8ee8e"><path d="M 37.976562 89 L 57 89 L 57 104 L 37.976562 104 Z M 37.976562 89 " clip-rule="nonzero"/></clipPath></defs><g clip-path="url(#737eb057f2)"><path fill="#ffffff" d="M 0.398438 0 L 299.601562 0 L 299.601562 187 L 0.398438 187 Z M 0.398438 0 " fill-opacity="1" fill-rule="nonzero"/><path fill="#ffffff" d="M 0.398438 0 L 299.601562 0 L 299.601562 187 L 0.398438 187 Z M 0.398438 0 " fill-opacity="1" fill-rule="nonzero"/></g><g clip-path="url(#81a8348a27)"><path fill="#6c6d6d" d="M 162.808594 84.539062 L 167.390625 84.539062 C 172.03125 84.539062 174.953125 87.636719 174.953125 91.988281 C 174.953125 96.339844 172.027344 99.433594 167.390625 99.433594 L 162.808594 99.433594 Z M 167.386719 97.601562 C 170.824219 97.601562 173 95.539062 173 91.988281 C 173 88.4375 170.824219 86.371094 167.386719 86.371094 L 164.753906 86.371094 L 164.753906 97.660156 L 167.386719 97.660156 Z M 176.039062 94.335938 C 176.039062 91.414062 178.046875 88.894531 181.023438 88.894531 C 184.058594 88.894531 186.003906 91.015625 186.003906 94.335938 C 186.003906 94.507812 186.003906 94.679688 186.003906 94.679688 L 177.929688 94.679688 C 178.042969 96.855469 179.589844 98 181.191406 98 C 182.335938 98 183.429688 97.539062 184.003906 96.226562 L 185.71875 96.914062 C 185.089844 98.347656 183.597656 99.722656 181.25 99.722656 C 178.101562 99.78125 176.039062 97.429688 176.039062 94.335938 Z M 180.964844 90.667969 C 179.53125 90.667969 178.445312 91.640625 178.042969 93.132812 L 183.941406 93.132812 C 183.945312 92.214844 183.144531 90.667969 180.964844 90.667969 Z M 186.695312 89.234375 L 188.757812 89.234375 L 191.738281 97.140625 L 191.796875 97.140625 L 194.832031 89.234375 L 196.898438 89.234375 L 192.714844 99.433594 L 190.828125 99.433594 Z M 197.0625 94.335938 C 197.0625 91.414062 199.070312 88.894531 202.046875 88.894531 C 205.082031 88.894531 207.03125 91.015625 207.03125 94.335938 C 207.03125 94.507812 207.03125 94.679688 207.03125 94.679688 L 198.957031 94.679688 C 199.070312 96.855469 200.617188 98 202.222656 98 C 203.367188 98 204.457031 97.539062 205.03125 96.226562 L 206.75 96.914062 C 206.117188 98.347656 204.628906 99.722656 202.277344 99.722656 C 199.128906 99.78125 197.0625 97.429688 197.0625 94.335938 Z M 202.050781 90.667969 C 200.617188 90.667969 199.53125 91.640625 199.128906 93.132812 L 205.027344 93.132812 C 204.96875 92.214844 204.226562 90.667969 202.050781 90.667969 Z M 208.636719 99.433594 L 208.636719 84.480469 L 210.585938 84.480469 L 210.585938 99.433594 Z M 222.617188 94.335938 C 222.617188 97.429688 220.4375 99.78125 217.34375 99.78125 C 214.25 99.78125 212.070312 97.429688 212.070312 94.335938 C 212.070312 91.242188 214.25 88.894531 217.34375 88.894531 C 220.4375 88.894531 222.617188 91.242188 222.617188 94.335938 Z M 220.667969 94.335938 C 220.667969 91.988281 219.066406 90.667969 217.347656 90.667969 C 215.628906 90.667969 214.023438 92.042969 214.023438 94.335938 C 214.023438 96.6875 215.628906 98.003906 217.347656 98.003906 C 219.066406 98.003906 220.667969 96.6875 220.667969 94.335938 Z M 226 98 L 225.941406 98 L 226 99.433594 L 226 103.960938 L 224.054688 103.960938 L 224.054688 89.234375 L 225.886719 89.234375 L 225.886719 90.667969 L 225.941406 90.667969 C 226.515625 89.75 227.773438 88.894531 229.433594 88.894531 C 232.011719 88.894531 234.304688 91.183594 234.304688 94.335938 C 234.304688 97.488281 232.011719 99.78125 229.433594 99.78125 C 227.832031 99.78125 226.570312 98.976562 226 98 Z M 232.414062 94.335938 C 232.414062 92.042969 230.867188 90.667969 229.148438 90.667969 C 227.433594 90.667969 225.886719 92.042969 225.886719 94.335938 C 225.886719 96.6875 227.433594 98.003906 229.148438 98.003906 C 230.867188 98.003906 232.414062 96.628906 232.414062 94.335938 Z M 235.390625 94.335938 C 235.390625 91.414062 237.398438 88.894531 240.375 88.894531 C 243.410156 88.894531 245.359375 91.015625 245.359375 94.335938 C 245.359375 94.507812 245.359375 94.679688 245.359375 94.679688 L 237.28125 94.679688 C 237.394531 96.855469 238.941406 98 240.546875 98 C 241.6875 98 242.78125 97.539062 243.355469 96.226562 L 245.074219 96.914062 C 244.441406 98.347656 242.953125 99.722656 240.601562 99.722656 C 237.457031 99.78125 235.390625 97.429688 235.390625 94.335938 Z M 240.316406 90.667969 C 238.882812 90.667969 237.796875 91.640625 237.394531 93.132812 L 243.292969 93.132812 C 243.296875 92.214844 242.554688 90.667969 240.316406 90.667969 Z M 246.964844 99.433594 L 246.964844 89.234375 L 248.796875 89.234375 L 248.796875 90.894531 L 248.855469 90.894531 C 249.257812 89.75 250.746094 88.949219 251.835938 88.949219 C 252.464844 88.949219 252.867188 89.007812 253.269531 89.179688 L 252.523438 90.953125 C 252.238281 90.839844 251.894531 90.78125 251.492188 90.78125 C 250.175781 90.78125 248.859375 91.867188 248.859375 93.761719 L 248.859375 99.375 L 246.96875 99.375 L 246.96875 99.433594 Z M 253.839844 96.855469 L 255.558594 96.167969 C 256.074219 97.488281 257.105469 98.113281 258.304688 98.113281 C 259.511719 98.113281 260.367188 97.539062 260.367188 96.679688 C 260.367188 96.164062 260.085938 95.59375 258.992188 95.304688 L 256.929688 94.789062 C 256.011719 94.558594 254.179688 93.757812 254.179688 91.921875 C 254.179688 90.089844 256.125 88.882812 258.246094 88.882812 C 260.023438 88.882812 261.570312 89.6875 262.199219 91.289062 L 260.539062 91.976562 C 260.136719 91.003906 259.222656 90.601562 258.191406 90.601562 C 257.105469 90.601562 256.183594 91.0625 256.183594 91.921875 C 256.183594 92.550781 256.699219 92.894531 257.558594 93.125 L 259.566406 93.585938 C 261.574219 94.046875 262.375 95.304688 262.375 96.566406 C 262.375 98.398438 260.773438 99.777344 258.367188 99.777344 C 255.847656 99.78125 254.46875 98.347656 253.839844 96.855469 Z M 98.582031 99.78125 C 101.101562 99.78125 103.050781 98.921875 104.535156 97.375 C 106.085938 95.828125 106.542969 93.648438 106.542969 91.929688 C 106.542969 91.414062 106.488281 90.898438 106.429688 90.496094 L 98.582031 90.496094 L 98.582031 92.847656 L 104.195312 92.847656 C 104.023438 94.164062 103.5625 95.136719 102.933594 95.769531 C 102.132812 96.570312 100.867188 97.488281 98.636719 97.488281 C 95.203125 97.488281 92.507812 94.738281 92.507812 91.242188 C 92.507812 87.804688 95.195312 84.996094 98.636719 84.996094 C 100.46875 84.996094 101.847656 85.742188 102.875 86.65625 L 104.535156 84.996094 C 103.160156 83.675781 101.273438 82.648438 98.695312 82.648438 C 93.996094 82.648438 90.042969 86.488281 90.042969 91.183594 C 89.929688 95.941406 93.882812 99.78125 98.582031 99.78125 Z M 112.960938 88.777344 C 109.921875 88.777344 107.460938 91.070312 107.460938 94.28125 C 107.460938 97.429688 109.921875 99.78125 112.960938 99.78125 C 116 99.78125 118.460938 97.429688 118.460938 94.28125 C 118.460938 91.070312 116 88.777344 112.960938 88.777344 Z M 112.960938 97.601562 C 111.300781 97.601562 109.867188 96.226562 109.867188 94.28125 C 109.867188 92.273438 111.300781 90.957031 112.960938 90.957031 C 114.621094 90.957031 116.054688 92.332031 116.054688 94.28125 C 116.054688 96.226562 114.621094 97.601562 112.960938 97.601562 Z M 124.992188 88.777344 C 121.953125 88.777344 119.492188 91.070312 119.492188 94.28125 C 119.492188 97.429688 121.953125 99.78125 124.992188 99.78125 C 128.027344 99.78125 130.492188 97.429688 130.492188 94.28125 C 130.550781 91.070312 128.085938 88.777344 124.992188 88.777344 Z M 124.992188 97.601562 C 123.332031 97.601562 121.898438 96.226562 121.898438 94.28125 C 121.898438 92.273438 123.332031 90.957031 124.992188 90.957031 C 126.652344 90.957031 128.085938 92.332031 128.085938 94.28125 C 128.144531 96.226562 126.710938 97.601562 124.992188 97.601562 Z M 139.832031 89.121094 L 139.832031 90.035156 L 139.773438 90.035156 C 139.257812 89.40625 138.171875 88.832031 136.851562 88.832031 C 134.105469 88.832031 131.578125 91.238281 131.578125 94.332031 C 131.578125 97.425781 134.097656 99.832031 136.851562 99.832031 C 138.171875 99.832031 139.199219 99.257812 139.773438 98.570312 L 139.832031 98.570312 L 139.832031 99.371094 C 139.832031 101.492188 138.6875 102.582031 136.910156 102.582031 C 135.417969 102.582031 134.503906 101.492188 134.160156 100.632812 L 132.039062 101.492188 C 132.671875 102.925781 134.273438 104.757812 136.910156 104.757812 C 139.773438 104.757812 142.125 103.097656 142.125 99.03125 L 142.125 89.121094 Z M 137.023438 97.601562 C 135.363281 97.601562 133.929688 96.226562 133.929688 94.28125 C 133.929688 92.332031 135.304688 90.898438 137.023438 90.898438 C 138.683594 90.898438 139.945312 92.332031 139.945312 94.28125 C 140.003906 96.226562 138.683594 97.601562 137.023438 97.601562 Z M 146.191406 83.277344 L 143.785156 83.277344 L 143.785156 99.492188 L 146.191406 99.492188 Z M 152.835938 97.601562 C 151.628906 97.601562 150.714844 97.027344 150.144531 95.941406 L 157.535156 92.902344 L 157.304688 92.273438 C 156.847656 91.066406 155.472656 88.777344 152.609375 88.777344 C 149.742188 88.777344 147.390625 91.015625 147.390625 94.28125 C 147.390625 97.375 149.742188 99.78125 152.835938 99.78125 C 155.355469 99.78125 156.847656 98.234375 157.421875 97.316406 L 155.53125 96.054688 C 154.898438 97.027344 154.097656 97.601562 152.835938 97.601562 Z M 152.664062 90.894531 C 153.636719 90.894531 154.441406 91.355469 154.730469 92.039062 L 149.804688 94.105469 C 149.683594 91.988281 151.402344 90.894531 152.664062 90.894531 Z M 152.664062 90.894531 " fill-opacity="1" fill-rule="nonzero"/></g><path fill="#ea4335" d="M 42.492188 96.339844 L 55.382812 88.894531 C 56.527344 88.203125 56.929688 86.773438 56.242188 85.628906 L 55.441406 84.195312 C 54.753906 83.050781 53.320312 82.648438 52.175781 83.335938 L 39.285156 90.78125 C 38.140625 91.46875 37.738281 92.902344 38.425781 94.046875 L 39.226562 95.480469 C 39.859375 96.628906 41.347656 97.027344 42.492188 96.339844 Z M 42.492188 96.339844 " fill-opacity="1" fill-rule="nonzero"/><path fill="#fbbc04" d="M 65.121094 103.046875 L 78.011719 95.597656 C 79.15625 94.910156 79.558594 93.476562 78.871094 92.332031 L 78.070312 90.898438 C 77.382812 89.757812 75.949219 89.351562 74.804688 90.042969 L 61.914062 97.488281 C 60.769531 98.175781 60.367188 99.609375 61.054688 100.753906 L 61.855469 102.1875 C 62.488281 103.328125 63.976562 103.734375 65.121094 103.046875 Z M 65.121094 103.046875 " fill-opacity="1" fill-rule="nonzero"/><path fill="#0f9d58" d="M 74.863281 96.339844 L 61.976562 88.894531 C 60.832031 88.203125 60.429688 86.773438 61.117188 85.628906 L 61.917969 84.195312 C 62.605469 83.050781 64.039062 82.648438 65.183594 83.335938 L 78.074219 90.78125 C 79.21875 91.46875 79.621094 92.902344 78.933594 94.046875 L 78.128906 95.480469 C 77.5 96.628906 76.007812 97.027344 74.863281 96.339844 Z M 74.863281 96.339844 " fill-opacity="1" fill-rule="nonzero"/><g clip-path="url(#dbaed8ee8e)"><path fill="#4285f4" d="M 52.0625 103.046875 L 39.171875 95.59375 C 38.027344 94.90625 37.625 93.472656 38.3125 92.328125 L 39.113281 90.894531 C 39.800781 89.75 41.234375 89.347656 42.378906 90.035156 L 55.269531 97.484375 C 56.414062 98.171875 56.816406 99.605469 56.128906 100.75 L 55.328125 102.183594 C 54.636719 103.328125 53.210938 103.734375 52.0625 103.046875 Z M 52.0625 103.046875 " fill-opacity="1" fill-rule="nonzero"/></g></svg>